<?xml version="1.0" standalone="no"?>
<!DOCTYPE svg PUBLIC "-//W3C//DTD SVG 20010904//EN"
 "http://www.w3.org/TR/2001/REC-SVG-20010904/DTD/svg10.dtd">
<svg version="1.0" xmlns="http://www.w3.org/2000/svg"
 width="364.000000pt" height="364.000000pt" viewBox="0 0 364.000000 364.000000"
 preserveAspectRatio="xMidYMid meet">
<metadata>
Created by potrace 1.14, written by Peter Selinger 2001-2017
</metadata>
<g transform="translate(0.000000,364.000000) scale(0.100000,-0.100000)"
fill="#000000" stroke="none">
<path d="M345 2782 c-95 -4 -103 -7 -115 -53 -11 -41 -12 -187 -1 -224 18 -62
4 -59 292 -60 l264 0 0 -827 c1 -714 3 -830 15 -842 48 -48 351 -45 387 3 9
12 12 216 12 835 1 451 4 822 7 825 3 3 120 6 259 7 189 0 257 3 268 13 41 33
43 269 4 309 -11 10 -146 13 -673 15 -362 1 -686 1 -719 -1z"/>
<path d="M1880 2784 c-30 -11 -45 -15 -50 -15 -3 0 -9 -7 -13 -15 -5 -9 26
-81 92 -211 135 -269 321 -642 425 -852 l86 -173 0 -363 c0 -397 -2 -386 58
-402 15 -5 86 -8 157 -8 103 1 137 5 163 18 l32 18 0 364 0 365 87 178 c47 97
176 357 286 577 207 415 230 466 221 490 -11 28 -76 37 -231 34 -134 -4 -154
-6 -173 -24 -18 -16 -95 -163 -104 -200 -3 -10 -14 -35 -95 -209 -22 -49 -41
-95 -41 -102 0 -8 -4 -14 -9 -14 -5 0 -11 -10 -14 -22 -7 -28 -112 -296 -119
-303 -3 -3 -28 52 -56 122 -45 114 -214 493 -293 659 -40 84 -60 92 -249 92
-80 1 -152 -2 -160 -4z"/>
</g>
</svg>
