<?xml version="1.0" standalone="no"?>
<!DOCTYPE svg PUBLIC "-//W3C//DTD SVG 20010904//EN"
 "http://www.w3.org/TR/2001/REC-SVG-20010904/DTD/svg10.dtd">
<svg version="1.0" xmlns="http://www.w3.org/2000/svg"
 width="448.000000pt" height="448.000000pt" viewBox="0 0 448.000000 448.000000"
 preserveAspectRatio="xMidYMid meet">
<metadata>
Created by potrace 1.14, written by Peter Selinger 2001-2017
</metadata>
<g transform="translate(0.000000,448.000000) scale(0.100000,-0.100000)"
fill="#000000" stroke="none">
<path d="M2303 3431 c-44 -8 -73 -35 -73 -67 0 -20 435 -903 699 -1419 l41
-80 0 -458 c0 -444 1 -458 20 -474 39 -33 99 -43 260 -40 130 2 161 5 190 21
19 10 38 23 41 29 4 5 7 213 7 462 l-1 452 361 719 c198 396 365 737 372 760
26 87 -11 101 -250 101 -205 0 -266 -16 -285 -72 -4 -11 -8 -22 -10 -25 -1 -3
-10 -23 -19 -45 -17 -37 -43 -95 -87 -190 -131 -287 -194 -435 -314 -745 -12
-31 -14 -33 -21 -15 -81 216 -288 690 -420 963 -60 123 -62 124 -299 127 -99
1 -195 -1 -212 -4z"/>
<path d="M289 3423 c-37 -9 -56 -90 -54 -223 2 -98 16 -160 41 -180 10 -9 101
-13 339 -13 l325 0 1 -281 c0 -155 0 -612 0 -1016 1 -404 3 -745 6 -756 3 -13
21 -29 46 -40 35 -16 67 -19 207 -19 170 0 219 9 247 45 9 11 12 85 12 265 0
138 0 599 0 1026 l1 775 326 1 c281 0 328 2 341 16 26 25 40 104 38 206 -3
120 -17 174 -49 189 -17 8 -286 11 -918 10 -491 0 -900 -3 -909 -5z"/>
</g>
</svg>
